{
	"asset":{
		"generator":"Khronos glTF Blender I/O v4.0.43",
		"version":"2.0"
	},
	"scene":0,
	"scenes":[
		{
			"name":"Scene",
			"nodes":[
				0
			]
		}
	],
	"nodes":[
		{
			"mesh":0,
			"name":"tyrannosaurusRex"
		}
	],
	"materials":[
		{
			"doubleSided":true,
			"name":"Tyrannosaurus93",
			"normalTexture":{
				"index":0,
				"scale":2
			},
			"pbrMetallicRoughness":{
				"baseColorTexture":{
					"index":1
				},
				"metallicFactor":0,
				"metallicRoughnessTexture":{
					"index":2
				}
			}
		}
	],
	"meshes":[
		{
			"name":"tyrannosaurus93_model0.001",
			"primitives":[
				{
					"attributes":{
						"POSITION":0,
						"NORMAL":1,
						"TEXCOORD_0":2,
						"TEXCOORD_1":3
					},
					"indices":4,
					"material":0
				}
			]
		}
	],
	"textures":[
		{
			"sampler":0,
			"source":0
		},
		{
			"sampler":0,
			"source":1
		},
		{
			"sampler":0,
			"source":2
		}
	],
	"images":[
		{
			"mimeType":"image/png",
			"name":"tyrannosaurus93.pnormaltexture-gigapixel",
			"uri":"tyrannosaurus93_pnormaltexture-gigapixel.png"
		},
		{
			"mimeType":"image/png",
			"name":"tyrannosaurus93.pbasediffusetexture-gigapixel",
			"uri":"tyrannosaurus93_pbasediffusetexture-gigapixel.png"
		},
		{
			"mimeType":"image/png",
			"name":"tyrannosaurus93.pbasepackedtexture_[02]-gigapixel",
			"uri":"tyrannosaurus93_pbasepackedtexture_02-gigapixel.png"
		}
	],
	"accessors":[
		{
			"bufferView":0,
			"componentType":5126,
			"count":16129,
			"max":[
				1.3427734375,
				5.89794921875,
				5.29541015625
			],
			"min":[
				-1.34228515625,
				0.00390625,
				-8.2099609375
			],
			"type":"VEC3"
		},
		{
			"bufferView":1,
			"componentType":5126,
			"count":16129,
			"type":"VEC3"
		},
		{
			"bufferView":2,
			"componentType":5126,
			"count":16129,
			"type":"VEC2"
		},
		{
			"bufferView":3,
			"componentType":5126,
			"count":16129,
			"type":"VEC2"
		},
		{
			"bufferView":4,
			"componentType":5123,
			"count":84456,
			"type":"SCALAR"
		}
	],
	"bufferViews":[
		{
			"buffer":0,
			"byteLength":193548,
			"byteOffset":0,
			"target":34962
		},
		{
			"buffer":0,
			"byteLength":193548,
			"byteOffset":193548,
			"target":34962
		},
		{
			"buffer":0,
			"byteLength":129032,
			"byteOffset":387096,
			"target":34962
		},
		{
			"buffer":0,
			"byteLength":129032,
			"byteOffset":516128,
			"target":34962
		},
		{
			"buffer":0,
			"byteLength":168912,
			"byteOffset":645160,
			"target":34963
		}
	],
	"samplers":[
		{
			"magFilter":9729,
			"minFilter":9987
		}
	],
	"buffers":[
		{
			"byteLength":814072,
			"uri":"Trex.bin"
		}
	]
}
